<svg width="52" height="50" viewBox="0 0 52 50" fill="none" xmlns="http://www.w3.org/2000/svg" xmlns:xlink="http://www.w3.org/1999/xlink">
<path d="M7.771,7.331L43.488,7.331L43.488,3.331L7.771,3.331L7.771,7.331ZM43.488,7.331C45.373,7.331 46.59,8.69 46.59,9.998L50.59,9.998C50.59,6.152 47.239,3.331 43.488,3.331L43.488,7.331ZM46.59,9.998L46.59,42.666L50.59,42.666L50.59,9.998L46.59,9.998ZM46.59,42.666C46.59,43.975 45.373,45.333 43.488,45.333L43.488,49.333C47.239,49.333 50.59,46.513 50.59,42.666L46.59,42.666ZM43.488,45.333L7.771,45.333L7.771,49.333L43.488,49.333L43.488,45.333ZM7.771,45.333C5.886,45.333 4.669,43.975 4.669,42.666L0.669,42.666C0.669,46.513 4.02,49.333 7.771,49.333L7.771,45.333ZM4.669,42.666L4.669,9.998L0.669,9.998L0.669,42.666L4.669,42.666ZM4.669,9.998C4.669,8.69 5.886,7.331 7.771,7.331L7.771,3.331C4.02,3.331 0.669,6.152 0.669,9.998L4.669,9.998Z" transform="rotate(0 25.63 26.332)" fill="#E70472"/>
<line x1="33.837" y1="0.667" x2="33.837" y2="10" fill="#D9D9D9" stroke="#E70472" stroke-width="2" stroke-miterlimit="3.999327" stroke-linecap="round" stroke-linejoin="round"/>
<line x1="13.43" y1="0.667" x2="13.43" y2="10" fill="#D9D9D9" stroke="#E70472" stroke-width="2" stroke-miterlimit="3.999327" stroke-linecap="round" stroke-linejoin="round"/>
<line x1="2.669" y1="17.336" x2="48.59" y2="17.336" fill="#D9D9D9" stroke="#E70472" stroke-width="2" stroke-miterlimit="3.999327" stroke-linecap="round" stroke-linejoin="round"/>
</svg>
