<svg width="38" height="38" viewBox="0 0 38 38" fill="none" xmlns="http://www.w3.org/2000/svg" xmlns:xlink="http://www.w3.org/1999/xlink">
<path d="M18,3.875C18.759,3.875 19.375,3.259 19.375,2.5C19.375,1.741 18.759,1.125 18,1.125L18,3.875ZM0.583,7.083L-0.792,7.083L0.583,7.083ZM23.5,36.875C24.259,36.875 24.875,36.259 24.875,35.5C24.875,34.741 24.259,34.125 23.5,34.125L23.5,36.875ZM18,1.125L5.167,1.125L5.167,3.875L18,3.875L18,1.125ZM5.167,1.125C3.586,1.125 2.071,1.753 0.953,2.87L2.898,4.815C3.5,4.213 4.316,3.875 5.167,3.875L5.167,1.125ZM0.953,2.87C-0.164,3.988 -0.792,5.503 -0.792,7.083L1.958,7.083C1.958,6.232 2.296,5.416 2.898,4.815L0.953,2.87ZM-0.792,7.083L-0.792,30.917L1.958,30.917L1.958,7.083L-0.792,7.083ZM-0.792,30.917C-0.792,32.497 -0.164,34.012 0.953,35.13L2.898,33.185C2.296,32.584 1.958,31.768 1.958,30.917L-0.792,30.917ZM0.953,35.13C2.071,36.247 3.586,36.875 5.167,36.875L5.167,34.125C4.316,34.125 3.5,33.787 2.898,33.185L0.953,35.13ZM5.167,36.875L23.5,36.875L23.5,34.125L5.167,34.125L5.167,36.875Z" transform="rotate(0 12.042 19)" fill="#6318AF"/>
<path d="M14.792,2.5C14.792,1.741 14.176,1.125 13.417,1.125C12.657,1.125 12.042,1.741 12.042,2.5L14.792,2.5ZM13.417,18.564L13.835,19.873C14.405,19.691 14.792,19.162 14.792,18.564L13.417,18.564ZM0.165,21.357C-0.559,21.588 -0.958,22.362 -0.726,23.085C-0.495,23.809 0.279,24.208 1.002,23.976L0.165,21.357ZM13.851,17.696C13.131,17.455 12.352,17.845 12.112,18.565C11.872,19.286 12.261,20.064 12.982,20.304L13.851,17.696ZM23.982,23.971C24.702,24.211 25.481,23.822 25.721,23.101C25.961,22.381 25.572,21.602 24.852,21.362L23.982,23.971ZM12.042,2.5L12.042,18.564L14.792,18.564L14.792,2.5L12.042,2.5ZM12.998,17.254L0.165,21.357L1.002,23.976L13.835,19.873L12.998,17.254ZM12.982,20.304L23.982,23.971L24.852,21.362L13.851,17.696L12.982,20.304Z" transform="rotate(0 12.5 12.583)" fill="#6318AF"/>
<line x1="28.542" y1="13.5" x2="28.542" y2="35.5" stroke="#6318AF" stroke-width="1.375" stroke-miterlimit="3.999327" stroke-linecap="round"/>
<path d="M25.792,9.222C25.792,6.677 26.605,4.843 27.551,3.667C28.558,2.414 29.579,2.042 29.917,2.042L29.917,-0.708C28.421,-0.708 26.692,0.346 25.407,1.944C24.061,3.619 23.042,6.064 23.042,9.222L25.792,9.222ZM29.917,2.042C30.254,2.042 31.275,2.414 32.282,3.667C33.228,4.843 34.042,6.677 34.042,9.222L36.792,9.222C36.792,6.064 35.772,3.619 34.426,1.944C33.141,0.346 31.412,-0.708 29.917,-0.708L29.917,2.042ZM34.042,9.222C34.042,10.137 33.627,10.808 32.916,11.3C32.163,11.82 31.078,12.125 29.917,12.125C28.755,12.125 27.67,11.82 26.917,11.3C26.206,10.808 25.792,10.137 25.792,9.222L23.042,9.222C23.042,11.159 24.002,12.627 25.353,13.562C26.663,14.467 28.328,14.875 29.917,14.875C31.505,14.875 33.17,14.467 34.48,13.562C35.831,12.627 36.792,11.159 36.792,9.222L34.042,9.222Z" transform="rotate(0 29.917 7.083)" fill="#6318AF"/>
</svg>
