<svg width="58" height="56" viewBox="0 0 58 56" fill="none" xmlns="http://www.w3.org/2000/svg" xmlns:xlink="http://www.w3.org/1999/xlink">
<circle cx="28.999" cy="28" r="25.667" transform="rotate(0 28.999 28)" stroke="#E70472" stroke-width="2" stroke-miterlimit="3.999327"/>
<path d="M28.999,53.667C23.922,53.667 18.96,52.161 14.739,49.341C10.518,46.521 7.228,42.512 5.286,37.822C3.343,33.132 2.835,27.972 3.825,22.993C4.816,18.014 7.26,13.441 10.85,9.851C14.439,6.262 19.013,3.817 23.991,2.827C28.97,1.836 34.131,2.345 38.821,4.287C43.511,6.23 47.519,9.52 50.34,13.741C53.16,17.961 54.665,22.924 54.665,28C54.665,34.807 51.961,41.336 47.148,46.149C42.334,50.963 35.806,53.667 28.999,53.667ZM28.999,5.756C24.599,5.756 20.298,7.06 16.64,9.505C12.982,11.949 10.131,15.423 8.448,19.488C6.764,23.552 6.323,28.025 7.182,32.34C8.04,36.655 10.159,40.618 13.27,43.729C16.38,46.84 20.344,48.959 24.659,49.817C28.974,50.675 33.447,50.235 37.511,48.551C41.576,46.868 45.05,44.016 47.494,40.358C49.938,36.7 51.243,32.4 51.243,28C51.243,22.101 48.9,16.443 44.728,12.271C40.556,8.099 34.898,5.756 28.999,5.756Z" transform="rotate(0 28.999 28)" stroke="#E70472" stroke-width="2" stroke-miterlimit="3.999327"/>
<path d="M36.251,37.684L27.781,29.214C27.623,29.054 27.497,28.864 27.412,28.656C27.327,28.447 27.284,28.224 27.285,27.999L27.285,14.31L30.707,14.31L30.707,27.297L38.681,35.254L36.251,37.684Z" transform="rotate(0 32.983 25.997)" stroke="#E70472" stroke-width="2" stroke-miterlimit="3.999327"/>
</svg>
