<svg width="36" height="42" viewBox="0 0 36 42" fill="none" xmlns="http://www.w3.org/2000/svg" xmlns:xlink="http://www.w3.org/1999/xlink">
<path d="M15.645,38.271L14.584,39.331L15.645,38.271ZM7.749,28.253C2.086,22.59 2.086,13.409 7.749,7.747L5.627,5.626C-1.207,12.46 -1.207,23.54 5.627,30.374L7.749,28.253ZM7.749,7.747C13.411,2.084 22.592,2.084 28.255,7.747L30.376,5.626C23.542,-1.209 12.461,-1.209 5.627,5.626L7.749,7.747ZM28.255,7.747C33.917,13.409 33.917,22.59 28.255,28.253L30.376,30.374C37.21,23.54 37.21,12.46 30.376,5.626L28.255,7.747ZM28.255,28.253C28.251,28.257 28.247,28.261 28.243,28.265C28.239,28.268 28.235,28.272 28.231,28.276C28.227,28.28 28.223,28.284 28.22,28.288C28.216,28.292 28.212,28.296 28.208,28.3C28.204,28.304 28.2,28.308 28.196,28.312C28.192,28.316 28.188,28.32 28.184,28.324C28.18,28.328 28.176,28.332 28.172,28.336C28.168,28.34 28.164,28.344 28.16,28.348C28.156,28.352 28.152,28.356 28.148,28.36C28.144,28.364 28.14,28.368 28.136,28.372C28.132,28.376 28.128,28.38 28.124,28.384C28.119,28.388 28.115,28.392 28.111,28.396C28.107,28.4 28.103,28.404 28.099,28.408C28.095,28.413 28.091,28.417 28.087,28.421C28.083,28.425 28.078,28.429 28.074,28.433C28.07,28.437 28.066,28.441 28.062,28.446C28.058,28.45 28.054,28.454 28.049,28.458C28.045,28.462 28.041,28.466 28.037,28.471C28.033,28.475 28.028,28.479 28.024,28.483C28.02,28.487 28.016,28.492 28.012,28.496C28.007,28.5 28.003,28.504 27.999,28.509C27.995,28.513 27.991,28.517 27.986,28.521C27.982,28.525 27.978,28.53 27.973,28.534C27.969,28.538 27.965,28.543 27.961,28.547C27.956,28.551 27.952,28.555 27.948,28.56C27.944,28.564 27.939,28.568 27.935,28.573C27.931,28.577 27.926,28.581 27.922,28.586C27.918,28.59 27.913,28.594 27.909,28.599C27.905,28.603 27.9,28.607 27.896,28.612C27.891,28.616 27.887,28.62 27.883,28.625C27.878,28.629 27.874,28.634 27.87,28.638C27.865,28.642 27.861,28.647 27.856,28.651C27.852,28.656 27.848,28.66 27.843,28.664C27.839,28.669 27.834,28.673 27.83,28.678C27.825,28.682 27.821,28.687 27.816,28.691C27.812,28.695 27.808,28.7 27.803,28.704C27.799,28.709 27.794,28.713 27.79,28.718C27.785,28.722 27.781,28.727 27.776,28.731C27.772,28.736 27.767,28.74 27.763,28.745C27.758,28.749 27.754,28.754 27.749,28.758C27.745,28.763 27.74,28.768 27.735,28.772C27.731,28.777 27.726,28.781 27.722,28.786C27.717,28.79 27.713,28.795 27.708,28.799C27.703,28.804 27.699,28.809 27.694,28.813C27.69,28.818 27.685,28.822 27.68,28.827C27.676,28.832 27.671,28.836 27.667,28.841C27.662,28.845 27.657,28.85 27.653,28.855C27.648,28.859 27.643,28.864 27.639,28.869C27.634,28.873 27.63,28.878 27.625,28.883C27.62,28.887 27.615,28.892 27.611,28.897C27.606,28.901 27.601,28.906 27.597,28.911C27.592,28.915 27.587,28.92 27.583,28.925C27.578,28.93 27.573,28.934 27.568,28.939C27.564,28.944 27.559,28.948 27.554,28.953C27.55,28.958 27.545,28.963 27.54,28.967C27.535,28.972 27.531,28.977 27.526,28.982C27.521,28.987 27.516,28.991 27.511,28.996C27.507,29.001 27.502,29.006 27.497,29.01C27.492,29.015 27.487,29.02 27.483,29.025C27.478,29.03 27.473,29.034 27.468,29.039C27.463,29.044 27.459,29.049 27.454,29.054C27.449,29.059 27.444,29.063 27.439,29.068C27.434,29.073 27.429,29.078 27.425,29.083C27.42,29.088 27.415,29.093 27.41,29.098C27.405,29.102 27.4,29.107 27.395,29.112C27.39,29.117 27.385,29.122 27.381,29.127C27.376,29.132 27.371,29.137 27.366,29.142C27.361,29.147 27.356,29.152 27.351,29.156C27.346,29.161 27.341,29.166 27.336,29.171C27.331,29.176 27.326,29.181 27.321,29.186C27.316,29.191 27.311,29.196 27.306,29.201C27.301,29.206 27.296,29.211 27.291,29.216C27.287,29.221 27.282,29.226 27.277,29.231C27.272,29.236 27.266,29.241 27.261,29.246C27.256,29.251 27.251,29.256 27.246,29.261C27.241,29.266 27.236,29.271 27.231,29.276C27.226,29.281 27.221,29.286 27.216,29.291C27.211,29.296 27.206,29.301 27.201,29.307C27.196,29.312 27.191,29.317 27.186,29.322C27.181,29.327 27.176,29.332 27.17,29.337C27.165,29.342 27.16,29.347 27.155,29.352C27.15,29.357 27.145,29.363 27.14,29.368C27.135,29.373 27.13,29.378 27.124,29.383C27.119,29.388 27.114,29.393 27.109,29.398C27.104,29.404 27.099,29.409 27.094,29.414C27.088,29.419 27.083,29.424 27.078,29.429C27.073,29.435 27.068,29.44 27.063,29.445C27.057,29.45 27.052,29.455 27.047,29.461C27.042,29.466 27.037,29.471 27.031,29.476C27.026,29.481 27.021,29.487 27.016,29.492C27.011,29.497 27.005,29.502 27,29.507C26.995,29.513 26.99,29.518 26.984,29.523C26.979,29.528 26.974,29.534 26.969,29.539C26.963,29.544 26.958,29.549 26.953,29.555C26.948,29.56 26.942,29.565 26.937,29.571C26.932,29.576 26.926,29.581 26.921,29.586C26.916,29.592 26.911,29.597 26.905,29.602C26.9,29.608 26.895,29.613 26.889,29.618C26.884,29.624 26.879,29.629 26.873,29.634C26.868,29.64 26.863,29.645 26.857,29.65C26.852,29.656 26.847,29.661 26.841,29.666C26.836,29.672 26.831,29.677 26.825,29.682C26.82,29.688 26.814,29.693 26.809,29.698C26.804,29.704 26.798,29.709 26.793,29.715C26.788,29.72 26.782,29.725 26.777,29.731C26.771,29.736 26.766,29.742 26.761,29.747C26.755,29.752 26.75,29.758 26.744,29.763C26.739,29.769 26.733,29.774 26.728,29.779C26.723,29.785 26.717,29.79 26.712,29.796C26.706,29.801 26.701,29.807 26.695,29.812C26.69,29.818 26.684,29.823 26.679,29.829C26.673,29.834 26.668,29.839 26.663,29.845C26.657,29.85 26.652,29.856 26.646,29.861C26.641,29.867 26.635,29.872 26.63,29.878C26.624,29.883 26.619,29.889 26.613,29.894C26.608,29.9 26.602,29.905 26.597,29.911C26.591,29.916 26.586,29.922 26.58,29.928C26.574,29.933 26.569,29.939 26.563,29.944C26.558,29.95 26.552,29.955 26.547,29.961C26.541,29.966 26.536,29.972 26.53,29.977C26.524,29.983 26.519,29.989 26.513,29.994C26.508,30 26.502,30.005 26.497,30.011C26.491,30.016 26.485,30.022 26.48,30.028C26.474,30.033 26.469,30.039 26.463,30.044C26.457,30.05 26.452,30.056 26.446,30.061C26.441,30.067 26.435,30.073 26.429,30.078C26.424,30.084 26.418,30.089 26.412,30.095C26.407,30.101 26.401,30.106 26.396,30.112C26.39,30.118 26.384,30.123 26.379,30.129C26.373,30.135 26.367,30.14 26.362,30.146C26.356,30.152 26.35,30.157 26.345,30.163C26.339,30.169 26.333,30.174 26.328,30.18C26.322,30.186 26.316,30.191 26.31,30.197C26.305,30.203 26.299,30.208 26.293,30.214C26.288,30.22 26.282,30.226 26.276,30.231C26.27,30.237 26.265,30.243 26.259,30.248C26.253,30.254 26.248,30.26 26.242,30.266C26.236,30.271 26.23,30.277 26.225,30.283C26.219,30.289 26.213,30.294 26.207,30.3C26.202,30.306 26.196,30.312 26.19,30.317C26.184,30.323 26.179,30.329 26.173,30.335C26.167,30.34 26.161,30.346 26.155,30.352C26.15,30.358 26.144,30.364 26.138,30.369C26.132,30.375 26.127,30.381 26.121,30.387C26.115,30.393 26.109,30.398 26.103,30.404C26.097,30.41 26.092,30.416 26.086,30.422C26.08,30.427 26.074,30.433 26.068,30.439C26.063,30.445 26.057,30.451 26.051,30.457C26.045,30.462 26.039,30.468 26.033,30.474C26.028,30.48 26.022,30.486 26.016,30.492C26.01,30.498 26.004,30.503 25.998,30.509C25.992,30.515 25.987,30.521 25.981,30.527C25.975,30.533 25.969,30.539 25.963,30.544C25.957,30.55 25.951,30.556 25.945,30.562C25.939,30.568 25.934,30.574 25.928,30.58C25.922,30.586 25.916,30.592 25.91,30.598C25.904,30.603 25.898,30.609 25.892,30.615C25.886,30.621 25.88,30.627 25.874,30.633C25.869,30.639 25.863,30.645 25.857,30.651C25.851,30.657 25.845,30.663 25.839,30.669C25.833,30.675 25.827,30.68 25.821,30.686C25.815,30.692 25.809,30.698 25.803,30.704C25.797,30.71 25.791,30.716 25.785,30.722C25.779,30.728 25.773,30.734 25.767,30.74C25.761,30.746 25.755,30.752 25.749,30.758C25.743,30.764 25.738,30.77 25.732,30.776C25.726,30.782 25.72,30.788 25.714,30.794C25.708,30.8 25.702,30.806 25.696,30.812C25.69,30.818 25.684,30.824 25.678,30.83C25.672,30.836 25.665,30.842 25.659,30.848C25.653,30.854 25.647,30.86 25.641,30.866C25.635,30.872 25.629,30.878 25.623,30.884C25.617,30.89 25.611,30.896 25.605,30.902C25.599,30.908 25.593,30.914 25.587,30.92C25.581,30.926 25.575,30.933 25.569,30.939C25.563,30.945 25.557,30.951 25.551,30.957C25.545,30.963 25.539,30.969 25.533,30.975C25.526,30.981 25.52,30.987 25.514,30.993C25.508,30.999 25.502,31.005 25.496,31.011C25.49,31.018 25.484,31.024 25.478,31.03C25.472,31.036 25.466,31.042 25.459,31.048C25.453,31.054 25.447,31.06 25.441,31.066C25.435,31.072 25.429,31.079 25.423,31.085C25.417,31.091 25.411,31.097 25.404,31.103C25.398,31.109 25.392,31.115 25.386,31.121C25.38,31.128 25.374,31.134 25.368,31.14C25.362,31.146 25.355,31.152 25.349,31.158C25.343,31.164 25.337,31.17 25.331,31.177C25.325,31.183 25.319,31.189 25.312,31.195C25.306,31.201 25.3,31.207 25.294,31.214C25.288,31.22 25.282,31.226 25.275,31.232C25.269,31.238 25.263,31.244 25.257,31.251C25.251,31.257 25.245,31.263 25.238,31.269C25.232,31.275 25.226,31.281 25.22,31.288C25.214,31.294 25.207,31.3 25.201,31.306C25.195,31.312 25.189,31.319 25.183,31.325C25.176,31.331 25.17,31.337 25.164,31.343C25.158,31.35 25.152,31.356 25.145,31.362C25.139,31.368 25.133,31.374 25.127,31.381C25.121,31.387 25.114,31.393 25.108,31.399C25.102,31.406 25.096,31.412 25.089,31.418C25.083,31.424 25.077,31.431 25.071,31.437C25.065,31.443 25.058,31.449 25.052,31.455C25.046,31.462 25.04,31.468 25.033,31.474C25.027,31.48 25.021,31.487 25.015,31.493C25.008,31.499 25.002,31.505 24.996,31.512C24.99,31.518 24.983,31.524 24.977,31.53C24.971,31.537 24.964,31.543 24.958,31.549C24.952,31.556 24.946,31.562 24.939,31.568C24.933,31.574 24.927,31.581 24.921,31.587C24.914,31.593 24.908,31.599 24.902,31.606C24.895,31.612 24.889,31.618 24.883,31.625C24.877,31.631 24.87,31.637 24.864,31.644C24.858,31.65 24.851,31.656 24.845,31.662C24.839,31.669 24.832,31.675 24.826,31.681C24.82,31.688 24.814,31.694 24.807,31.7C24.801,31.707 24.795,31.713 24.788,31.719C24.782,31.726 24.776,31.732 24.769,31.738C24.763,31.744 24.757,31.751 24.75,31.757C24.744,31.763 24.738,31.77 24.731,31.776C24.725,31.782 24.719,31.789 24.712,31.795C24.706,31.801 24.7,31.808 24.693,31.814C24.687,31.82 24.681,31.827 24.674,31.833C24.668,31.839 24.662,31.846 24.655,31.852C24.649,31.859 24.643,31.865 24.636,31.871C24.63,31.878 24.624,31.884 24.617,31.89C24.611,31.897 24.604,31.903 24.598,31.909C24.592,31.916 24.585,31.922 24.579,31.928C24.573,31.935 24.566,31.941 24.56,31.948C24.554,31.954 24.547,31.96 24.541,31.967C24.534,31.973 24.528,31.979 24.522,31.986C24.515,31.992 24.509,31.999 24.502,32.005C24.496,32.011 24.49,32.018 24.483,32.024C24.477,32.031 24.471,32.037 24.464,32.043C24.458,32.05 24.451,32.056 24.445,32.063C24.439,32.069 24.432,32.075 24.426,32.082C24.419,32.088 24.413,32.095 24.407,32.101C24.4,32.107 24.394,32.114 24.387,32.12C24.381,32.127 24.375,32.133 24.368,32.139C24.362,32.146 24.355,32.152 24.349,32.159C24.342,32.165 24.336,32.171 24.33,32.178C24.323,32.184 24.317,32.191 24.31,32.197C24.304,32.204 24.298,32.21 24.291,32.216C24.285,32.223 24.278,32.229 24.272,32.236C24.265,32.242 24.259,32.249 24.253,32.255C24.246,32.261 24.24,32.268 24.233,32.274C24.227,32.281 24.22,32.287 24.214,32.294C24.208,32.3 24.201,32.306 24.195,32.313C24.188,32.319 24.182,32.326 24.175,32.332C24.169,32.339 24.162,32.345 24.156,32.352C24.15,32.358 24.143,32.364 24.137,32.371C24.13,32.377 24.124,32.384 24.117,32.39C24.111,32.397 24.104,32.403 24.098,32.41C24.091,32.416 24.085,32.423 24.079,32.429C24.072,32.435 24.066,32.442 24.059,32.448C24.053,32.455 24.046,32.461 24.04,32.468C24.033,32.474 24.027,32.481 24.02,32.487C24.014,32.494 24.007,32.5 24.001,32.507C23.994,32.513 23.988,32.52 23.982,32.526C23.975,32.532 23.969,32.539 23.962,32.545C23.956,32.552 23.949,32.558 23.943,32.565C23.936,32.571 23.93,32.578 23.923,32.584C23.917,32.591 23.91,32.597 23.904,32.604C23.897,32.61 23.891,32.617 23.884,32.623C23.878,32.63 23.871,32.636 23.865,32.643C23.858,32.649 23.852,32.656 23.845,32.662C23.839,32.669 23.832,32.675 23.826,32.682C23.819,32.688 23.813,32.695 23.806,32.701C23.8,32.708 23.793,32.714 23.787,32.721C23.78,32.727 23.774,32.733 23.768,32.74C23.761,32.746 23.755,32.753 23.748,32.759C23.742,32.766 23.735,32.772 23.729,32.779C23.589,32.918 23.555,32.952 23.416,33.092C23.3,33.207 23.375,33.132 23.259,33.248C23.251,33.257 23.229,33.279 23.22,33.287C23.185,33.322 23.216,33.292 23.181,33.326C23.164,33.344 23.12,33.387 23.103,33.405C23.033,33.474 23.016,33.492 22.946,33.561C22.911,33.596 22.903,33.605 22.868,33.64C22.764,33.744 22.894,33.614 22.79,33.718C22.743,33.764 22.68,33.828 22.633,33.874C22.627,33.881 22.62,33.887 22.614,33.894C22.607,33.9 22.601,33.907 22.594,33.913C22.542,33.965 22.607,33.9 22.555,33.952C22.549,33.959 22.542,33.965 22.536,33.972C22.529,33.978 22.523,33.985 22.516,33.991C22.51,33.997 22.483,34.024 22.477,34.03C22.391,34.117 22.486,34.022 22.399,34.108C22.347,34.16 22.412,34.095 22.36,34.147C22.343,34.164 22.339,34.169 22.322,34.186C22.304,34.203 22.3,34.208 22.283,34.225C22.276,34.231 22.27,34.238 22.263,34.244C22.257,34.251 22.25,34.257 22.244,34.264C22.192,34.315 22.257,34.251 22.205,34.302C22.197,34.311 22.175,34.333 22.166,34.341C22.029,34.479 21.994,34.513 21.858,34.65C21.721,34.786 21.687,34.82 21.552,34.955C21.417,35.091 21.384,35.124 21.25,35.258C21.194,35.313 21.23,35.277 21.175,35.332C21.169,35.339 21.163,35.345 21.156,35.351C21.15,35.357 21.144,35.364 21.138,35.37C21.088,35.419 21.15,35.357 21.1,35.407C21.034,35.473 21.092,35.415 21.026,35.481C21.01,35.498 21.006,35.502 20.989,35.518C20.956,35.551 20.985,35.522 20.952,35.555C20.85,35.657 20.76,35.748 20.659,35.848C20.546,35.961 20.484,36.024 20.373,36.135C20.341,36.166 20.369,36.139 20.337,36.17C20.331,36.176 20.325,36.182 20.32,36.188C20.314,36.194 20.308,36.2 20.302,36.206C20.239,36.268 20.294,36.213 20.232,36.276C20.226,36.282 20.22,36.288 20.214,36.293C20.208,36.299 20.202,36.305 20.197,36.311C20.191,36.317 20.185,36.323 20.179,36.328C20.173,36.334 20.167,36.34 20.162,36.346C20.156,36.352 20.15,36.357 20.144,36.363C20.138,36.369 20.133,36.375 20.127,36.381C20.121,36.386 20.115,36.392 20.11,36.398C20.104,36.404 20.098,36.409 20.092,36.415C20.086,36.421 20.081,36.427 20.075,36.433C20.069,36.438 20.063,36.444 20.058,36.45C20.052,36.456 20.046,36.461 20.04,36.467C20.035,36.473 20.029,36.479 20.023,36.484C19.993,36.515 19.985,36.522 19.955,36.553C19.949,36.558 19.943,36.564 19.938,36.57C19.932,36.576 19.926,36.581 19.921,36.587C19.915,36.593 19.909,36.598 19.904,36.604C19.898,36.61 19.892,36.615 19.887,36.621C19.881,36.627 19.875,36.632 19.87,36.638C19.864,36.643 19.858,36.649 19.853,36.655C19.847,36.66 19.841,36.666 19.836,36.672C19.83,36.677 19.825,36.683 19.819,36.688C19.7,36.808 19.67,36.837 19.554,36.954C19.468,37.04 19.38,37.128 19.297,37.21L21.418,39.332C21.432,39.318 21.467,39.283 21.482,39.268C21.51,39.24 21.517,39.233 21.546,39.205C21.551,39.199 21.556,39.194 21.562,39.188C21.567,39.183 21.572,39.178 21.578,39.172C21.621,39.129 21.567,39.183 21.61,39.14C21.653,39.097 21.599,39.151 21.642,39.108C21.648,39.102 21.653,39.097 21.659,39.091C21.664,39.086 21.67,39.081 21.675,39.075C21.792,38.959 21.821,38.929 21.94,38.81C21.955,38.795 21.993,38.757 22.008,38.742C22.068,38.682 22.015,38.735 22.076,38.674C22.076,38.674 22.11,38.64 22.11,38.64C22.116,38.634 22.122,38.628 22.127,38.623C22.133,38.617 22.139,38.611 22.145,38.606C22.175,38.575 22.183,38.567 22.214,38.537C22.219,38.531 22.225,38.525 22.231,38.519C22.237,38.513 22.242,38.508 22.248,38.502C22.279,38.471 22.252,38.498 22.283,38.467C22.314,38.436 22.287,38.463 22.318,38.432C22.324,38.426 22.33,38.421 22.335,38.415C22.341,38.409 22.347,38.403 22.353,38.397C22.384,38.366 22.357,38.393 22.388,38.362C22.404,38.346 22.408,38.343 22.423,38.327C22.486,38.264 22.396,38.354 22.459,38.292C22.464,38.286 22.47,38.28 22.476,38.274C22.482,38.268 22.488,38.262 22.494,38.256C22.606,38.145 22.667,38.083 22.781,37.969C22.881,37.869 22.971,37.779 23.074,37.677C23.162,37.588 23.281,37.469 23.371,37.379C23.378,37.373 23.384,37.366 23.39,37.36C23.396,37.354 23.403,37.348 23.409,37.341C23.425,37.325 23.43,37.32 23.446,37.304C23.446,37.304 23.484,37.266 23.484,37.266C23.49,37.26 23.497,37.253 23.503,37.247C23.509,37.241 23.516,37.235 23.522,37.228C23.589,37.161 23.606,37.144 23.673,37.077C23.718,37.032 23.933,36.817 23.979,36.771C24.082,36.669 23.953,36.797 24.056,36.694C24.107,36.643 24.082,36.669 24.133,36.617C24.139,36.611 24.146,36.604 24.152,36.598C24.159,36.591 24.165,36.585 24.172,36.578C24.178,36.572 24.185,36.566 24.191,36.559C24.197,36.553 24.204,36.546 24.21,36.54C24.227,36.523 24.232,36.518 24.249,36.501C24.301,36.45 24.236,36.514 24.288,36.462C24.314,36.437 24.301,36.45 24.326,36.424C24.333,36.417 24.339,36.411 24.346,36.404C24.352,36.398 24.359,36.391 24.365,36.385C24.372,36.378 24.378,36.372 24.385,36.365C24.391,36.359 24.398,36.353 24.404,36.346C24.411,36.34 24.417,36.333 24.423,36.327C24.43,36.32 24.436,36.314 24.443,36.307C24.495,36.255 24.43,36.32 24.482,36.268C24.499,36.251 24.503,36.247 24.521,36.229C24.538,36.212 24.542,36.208 24.56,36.191C24.566,36.184 24.573,36.178 24.579,36.171C24.586,36.165 24.592,36.158 24.599,36.152C24.605,36.145 24.612,36.139 24.618,36.132C24.625,36.126 24.631,36.119 24.638,36.113C24.644,36.106 24.651,36.1 24.657,36.093C24.664,36.087 24.67,36.08 24.677,36.074C24.683,36.067 24.69,36.061 24.696,36.054C24.703,36.048 24.709,36.041 24.716,36.035C24.722,36.028 24.729,36.022 24.735,36.015C24.742,36.009 24.748,36.002 24.755,35.996C24.847,35.903 24.818,35.932 24.911,35.839C25.015,35.735 24.885,35.865 24.989,35.761C25.024,35.726 25.033,35.718 25.067,35.683C25.137,35.613 25.154,35.596 25.224,35.526C25.294,35.456 25.233,35.517 25.302,35.448C25.407,35.343 25.276,35.474 25.381,35.369C25.45,35.3 25.468,35.282 25.537,35.213C25.544,35.206 25.55,35.2 25.557,35.193C25.563,35.187 25.57,35.18 25.576,35.174C25.663,35.087 25.529,35.222 25.615,35.135C25.668,35.083 25.602,35.148 25.655,35.096C25.661,35.089 25.668,35.083 25.674,35.076C25.681,35.069 25.687,35.063 25.694,35.056C25.7,35.05 25.707,35.043 25.713,35.037C25.72,35.03 25.726,35.024 25.733,35.017C25.739,35.011 25.746,35.004 25.752,34.998C25.759,34.991 25.765,34.985 25.772,34.978C25.778,34.972 25.785,34.965 25.791,34.959C25.798,34.952 25.804,34.946 25.811,34.939C25.817,34.933 25.824,34.926 25.83,34.92C25.837,34.913 25.843,34.907 25.85,34.9C25.856,34.894 25.863,34.887 25.869,34.881C25.876,34.874 25.882,34.868 25.889,34.861C25.895,34.855 25.902,34.848 25.908,34.842C25.915,34.835 25.921,34.829 25.928,34.822C25.934,34.816 25.941,34.809 25.947,34.803C25.954,34.796 25.96,34.79 25.967,34.783C25.973,34.777 25.98,34.77 25.986,34.764C25.993,34.757 25.999,34.751 26.006,34.744C26.012,34.738 26.019,34.732 26.025,34.725C26.032,34.719 26.038,34.712 26.045,34.706C26.051,34.699 26.058,34.693 26.064,34.686C26.07,34.68 26.077,34.673 26.083,34.667C26.09,34.66 26.096,34.654 26.103,34.647C26.109,34.641 26.116,34.634 26.122,34.628C26.129,34.621 26.135,34.615 26.142,34.608C26.148,34.602 26.155,34.596 26.161,34.589C26.168,34.583 26.174,34.576 26.18,34.57C26.187,34.563 26.193,34.557 26.2,34.55C26.206,34.544 26.213,34.537 26.219,34.531C26.226,34.524 26.232,34.518 26.239,34.512C26.245,34.505 26.251,34.499 26.258,34.492C26.264,34.486 26.271,34.479 26.277,34.473C26.284,34.466 26.29,34.46 26.297,34.454C26.303,34.447 26.31,34.441 26.316,34.434C26.322,34.428 26.329,34.421 26.335,34.415C26.342,34.408 26.348,34.402 26.355,34.396C26.361,34.389 26.367,34.383 26.374,34.376C26.38,34.37 26.387,34.363 26.393,34.357C26.4,34.351 26.406,34.344 26.412,34.338C26.419,34.331 26.425,34.325 26.432,34.318C26.438,34.312 26.445,34.306 26.451,34.299C26.457,34.293 26.464,34.286 26.47,34.28C26.477,34.273 26.483,34.267 26.489,34.261C26.496,34.254 26.502,34.248 26.509,34.241C26.515,34.235 26.522,34.229 26.528,34.222C26.534,34.216 26.541,34.209 26.547,34.203C26.554,34.197 26.56,34.19 26.566,34.184C26.573,34.177 26.579,34.171 26.585,34.165C26.592,34.158 26.598,34.152 26.605,34.145C26.611,34.139 26.617,34.133 26.624,34.126C26.63,34.12 26.637,34.114 26.643,34.107C26.649,34.101 26.656,34.094 26.662,34.088C26.668,34.082 26.675,34.075 26.681,34.069C26.688,34.063 26.694,34.056 26.7,34.05C26.707,34.043 26.713,34.037 26.719,34.031C26.726,34.024 26.732,34.018 26.738,34.012C26.745,34.005 26.751,33.999 26.758,33.993C26.764,33.986 26.77,33.98 26.777,33.974C26.783,33.967 26.789,33.961 26.796,33.954C26.802,33.948 26.808,33.942 26.815,33.935C26.821,33.929 26.827,33.923 26.834,33.916C26.84,33.91 26.846,33.904 26.853,33.897C26.859,33.891 26.865,33.885 26.872,33.878C26.878,33.872 26.884,33.866 26.891,33.859C26.897,33.853 26.903,33.847 26.91,33.841C26.916,33.834 26.922,33.828 26.929,33.822C26.935,33.815 26.941,33.809 26.947,33.803C26.954,33.796 26.96,33.79 26.966,33.784C26.973,33.777 26.979,33.771 26.985,33.765C26.992,33.759 26.998,33.752 27.004,33.746C27.01,33.74 27.017,33.733 27.023,33.727C27.029,33.721 27.036,33.715 27.042,33.708C27.048,33.702 27.054,33.696 27.061,33.689C27.067,33.683 27.073,33.677 27.08,33.671C27.086,33.664 27.092,33.658 27.098,33.652C27.105,33.646 27.111,33.639 27.117,33.633C27.123,33.627 27.13,33.621 27.136,33.614C27.142,33.608 27.148,33.602 27.155,33.596C27.161,33.589 27.167,33.583 27.173,33.577C27.18,33.571 27.186,33.564 27.192,33.558C27.198,33.552 27.205,33.546 27.211,33.539C27.217,33.533 27.223,33.527 27.229,33.521C27.236,33.514 27.242,33.508 27.248,33.502C27.254,33.496 27.261,33.49 27.267,33.483C27.273,33.477 27.279,33.471 27.285,33.465C27.292,33.459 27.298,33.452 27.304,33.446C27.31,33.44 27.316,33.434 27.323,33.428C27.329,33.421 27.335,33.415 27.341,33.409C27.347,33.403 27.354,33.397 27.36,33.39C27.366,33.384 27.372,33.378 27.378,33.372C27.384,33.366 27.391,33.36 27.397,33.353C27.403,33.347 27.409,33.341 27.415,33.335C27.421,33.329 27.428,33.323 27.434,33.316C27.44,33.31 27.446,33.304 27.452,33.298C27.458,33.292 27.464,33.286 27.471,33.28C27.477,33.273 27.483,33.267 27.489,33.261C27.495,33.255 27.501,33.249 27.507,33.243C27.514,33.237 27.52,33.23 27.526,33.224C27.532,33.218 27.538,33.212 27.544,33.206C27.55,33.2 27.556,33.194 27.562,33.188C27.569,33.182 27.575,33.175 27.581,33.169C27.587,33.163 27.593,33.157 27.599,33.151C27.605,33.145 27.611,33.139 27.617,33.133C27.623,33.127 27.63,33.121 27.636,33.115C27.642,33.108 27.648,33.102 27.654,33.096C27.66,33.09 27.666,33.084 27.672,33.078C27.678,33.072 27.684,33.066 27.69,33.06C27.696,33.054 27.702,33.048 27.708,33.042C27.714,33.036 27.72,33.03 27.727,33.024C27.733,33.018 27.739,33.012 27.745,33.006C27.751,32.999 27.757,32.993 27.763,32.987C27.769,32.981 27.775,32.975 27.781,32.969C27.787,32.963 27.793,32.957 27.799,32.951C27.805,32.945 27.811,32.939 27.817,32.933C27.823,32.927 27.829,32.921 27.835,32.915C27.841,32.909 27.847,32.903 27.853,32.897C27.859,32.891 27.865,32.885 27.871,32.879C27.877,32.873 27.883,32.867 27.889,32.861C27.895,32.855 27.901,32.849 27.907,32.844C27.913,32.838 27.919,32.832 27.925,32.826C27.93,32.82 27.936,32.814 27.942,32.808C27.948,32.802 27.954,32.796 27.96,32.79C27.966,32.784 27.972,32.778 27.978,32.772C27.984,32.766 27.99,32.76 27.996,32.754C28.002,32.748 28.008,32.742 28.014,32.737C28.019,32.731 28.025,32.725 28.031,32.719C28.037,32.713 28.043,32.707 28.049,32.701C28.055,32.695 28.061,32.689 28.067,32.683C28.073,32.678 28.078,32.672 28.084,32.666C28.09,32.66 28.096,32.654 28.102,32.648C28.108,32.642 28.114,32.636 28.12,32.631C28.125,32.625 28.131,32.619 28.137,32.613C28.143,32.607 28.149,32.601 28.155,32.595C28.161,32.59 28.166,32.584 28.172,32.578C28.178,32.572 28.184,32.566 28.19,32.56C28.196,32.555 28.201,32.549 28.207,32.543C28.213,32.537 28.219,32.531 28.225,32.526C28.23,32.52 28.236,32.514 28.242,32.508C28.248,32.502 28.254,32.496 28.259,32.491C28.265,32.485 28.271,32.479 28.277,32.473C28.283,32.468 28.288,32.462 28.294,32.456C28.3,32.45 28.306,32.444 28.311,32.439C28.317,32.433 28.323,32.427 28.329,32.421C28.334,32.416 28.34,32.41 28.346,32.404C28.352,32.398 28.357,32.393 28.363,32.387C28.369,32.381 28.375,32.375 28.38,32.37C28.386,32.364 28.392,32.358 28.398,32.353C28.403,32.347 28.409,32.341 28.415,32.335C28.42,32.33 28.426,32.324 28.432,32.318C28.437,32.313 28.443,32.307 28.449,32.301C28.455,32.296 28.46,32.29 28.466,32.284C28.472,32.279 28.477,32.273 28.483,32.267C28.489,32.262 28.494,32.256 28.5,32.25C28.506,32.245 28.511,32.239 28.517,32.233C28.522,32.228 28.528,32.222 28.534,32.216C28.539,32.211 28.545,32.205 28.551,32.199C28.556,32.194 28.562,32.188 28.568,32.183C28.573,32.177 28.579,32.171 28.584,32.166C28.59,32.16 28.596,32.155 28.601,32.149C28.607,32.143 28.612,32.138 28.618,32.132C28.624,32.127 28.629,32.121 28.635,32.115C28.64,32.11 28.646,32.104 28.651,32.099C28.657,32.093 28.662,32.088 28.668,32.082C28.674,32.077 28.679,32.071 28.685,32.065C28.69,32.06 28.696,32.054 28.701,32.049C28.707,32.043 28.712,32.038 28.718,32.032C28.723,32.027 28.729,32.021 28.734,32.016C28.74,32.01 28.745,32.005 28.751,31.999C28.756,31.994 28.762,31.988 28.767,31.983C28.773,31.977 28.778,31.972 28.784,31.966C28.789,31.961 28.795,31.955 28.8,31.95C28.806,31.944 28.811,31.939 28.817,31.933C28.822,31.928 28.828,31.923 28.833,31.917C28.838,31.912 28.844,31.906 28.849,31.901C28.855,31.895 28.86,31.89 28.866,31.885C28.871,31.879 28.876,31.874 28.882,31.868C28.887,31.863 28.893,31.857 28.898,31.852C28.903,31.847 28.909,31.841 28.914,31.836C28.92,31.83 28.925,31.825 28.93,31.82C28.936,31.814 28.941,31.809 28.947,31.804C28.952,31.798 28.957,31.793 28.963,31.788C28.968,31.782 28.973,31.777 28.979,31.772C28.984,31.766 28.989,31.761 28.995,31.756C29,31.75 29.005,31.745 29.011,31.74C29.016,31.734 29.021,31.729 29.027,31.724C29.032,31.718 29.037,31.713 29.042,31.708C29.048,31.702 29.053,31.697 29.058,31.692C29.064,31.687 29.069,31.681 29.074,31.676C29.079,31.671 29.085,31.665 29.09,31.66C29.095,31.655 29.1,31.65 29.106,31.644C29.111,31.639 29.116,31.634 29.121,31.629C29.127,31.624 29.132,31.618 29.137,31.613C29.142,31.608 29.147,31.603 29.153,31.597C29.158,31.592 29.163,31.587 29.168,31.582C29.173,31.577 29.179,31.571 29.184,31.566C29.189,31.561 29.194,31.556 29.199,31.551C29.205,31.546 29.21,31.54 29.215,31.535C29.22,31.53 29.225,31.525 29.23,31.52C29.236,31.515 29.241,31.509 29.246,31.504C29.251,31.499 29.256,31.494 29.261,31.489C29.266,31.484 29.271,31.479 29.276,31.474C29.282,31.469 29.287,31.463 29.292,31.458C29.297,31.453 29.302,31.448 29.307,31.443C29.312,31.438 29.317,31.433 29.322,31.428C29.327,31.423 29.332,31.418 29.337,31.413C29.343,31.408 29.348,31.403 29.353,31.398C29.358,31.392 29.363,31.387 29.368,31.382C29.373,31.377 29.378,31.372 29.383,31.367C29.388,31.362 29.393,31.357 29.398,31.352C29.403,31.347 29.408,31.342 29.413,31.337C29.418,31.332 29.423,31.327 29.428,31.322C29.433,31.317 29.438,31.312 29.443,31.307C29.448,31.302 29.453,31.298 29.458,31.293C29.462,31.288 29.467,31.283 29.472,31.278C29.477,31.273 29.482,31.268 29.487,31.263C29.492,31.258 29.497,31.253 29.502,31.248C29.507,31.243 29.512,31.238 29.517,31.234C29.522,31.229 29.526,31.224 29.531,31.219C29.536,31.214 29.541,31.209 29.546,31.204C29.551,31.199 29.556,31.195 29.56,31.19C29.565,31.185 29.57,31.18 29.575,31.175C29.58,31.17 29.585,31.165 29.59,31.161C29.594,31.156 29.599,31.151 29.604,31.146C29.609,31.141 29.614,31.137 29.618,31.132C29.623,31.127 29.628,31.122 29.633,31.117C29.638,31.113 29.642,31.108 29.647,31.103C29.652,31.098 29.657,31.094 29.661,31.089C29.666,31.084 29.671,31.079 29.676,31.075C29.68,31.07 29.685,31.065 29.69,31.06C29.695,31.056 29.699,31.051 29.704,31.046C29.709,31.041 29.713,31.037 29.718,31.032C29.723,31.027 29.727,31.023 29.732,31.018C29.737,31.013 29.741,31.009 29.746,31.004C29.751,30.999 29.755,30.995 29.76,30.99C29.765,30.985 29.769,30.981 29.774,30.976C29.779,30.971 29.783,30.967 29.788,30.962C29.793,30.958 29.797,30.953 29.802,30.948C29.806,30.944 29.811,30.939 29.816,30.935C29.82,30.93 29.825,30.925 29.829,30.921C29.834,30.916 29.839,30.912 29.843,30.907C29.848,30.902 29.852,30.898 29.857,30.893C29.861,30.889 29.866,30.884 29.87,30.88C29.875,30.875 29.879,30.871 29.884,30.866C29.888,30.862 29.893,30.857 29.897,30.853C29.902,30.848 29.906,30.844 29.911,30.839C29.915,30.835 29.92,30.83 29.924,30.826C29.929,30.821 29.933,30.817 29.938,30.812C29.942,30.808 29.947,30.803 29.951,30.799C29.956,30.795 29.96,30.79 29.964,30.786C29.969,30.781 29.973,30.777 29.978,30.772C29.982,30.768 29.986,30.764 29.991,30.759C29.995,30.755 30,30.75 30.004,30.746C30.008,30.742 30.013,30.737 30.017,30.733C30.022,30.729 30.026,30.724 30.03,30.72C30.035,30.716 30.039,30.711 30.043,30.707C30.048,30.703 30.052,30.698 30.056,30.694C30.061,30.69 30.065,30.685 30.069,30.681C30.073,30.677 30.078,30.672 30.082,30.668C30.086,30.664 30.091,30.66 30.095,30.655C30.099,30.651 30.103,30.647 30.108,30.643C30.112,30.638 30.116,30.634 30.12,30.63C30.125,30.626 30.129,30.621 30.133,30.617C30.137,30.613 30.141,30.609 30.146,30.605C30.15,30.6 30.154,30.596 30.158,30.592C30.162,30.588 30.167,30.584 30.171,30.579C30.175,30.575 30.179,30.571 30.183,30.567C30.187,30.563 30.191,30.559 30.196,30.555C30.2,30.55 30.204,30.546 30.208,30.542C30.212,30.538 30.216,30.534 30.22,30.53C30.224,30.526 30.229,30.522 30.233,30.518C30.237,30.513 30.241,30.509 30.245,30.505C30.249,30.501 30.253,30.497 30.257,30.493C30.261,30.489 30.265,30.485 30.269,30.481C30.273,30.477 30.277,30.473 30.281,30.469C30.285,30.465 30.289,30.461 30.293,30.457C30.297,30.453 30.301,30.449 30.305,30.445C30.309,30.441 30.313,30.437 30.317,30.433C30.321,30.429 30.325,30.425 30.329,30.421C30.333,30.417 30.337,30.413 30.341,30.409C30.345,30.405 30.349,30.401 30.353,30.398C30.357,30.394 30.36,30.39 30.364,30.386C30.368,30.382 30.372,30.378 30.376,30.374L28.255,28.253ZM16.706,37.21C14.062,34.566 9.867,30.371 7.749,28.253L5.627,30.374C7.746,32.493 11.941,36.688 14.584,39.331L16.706,37.21ZM22.502,18C22.502,20.485 20.487,22.5 18.002,22.5L18.002,25.5C22.144,25.5 25.502,22.142 25.502,18L22.502,18ZM18.002,22.5C15.516,22.5 13.502,20.485 13.502,18L10.502,18C10.502,22.142 13.859,25.5 18.002,25.5L18.002,22.5ZM13.502,18C13.502,15.515 15.516,13.5 18.002,13.5L18.002,10.5C13.859,10.5 10.502,13.858 10.502,18L13.502,18ZM18.002,13.5C20.487,13.5 22.502,15.515 22.502,18L25.502,18C25.502,13.858 22.144,10.5 18.002,10.5L18.002,13.5ZM19.297,37.21C18.581,37.926 17.422,37.926 16.706,37.21L14.584,39.331C16.472,41.219 19.531,41.22 21.418,39.332L19.297,37.21Z" transform="rotate(0 18.002 21.314)" fill="#6318AF"/>
</svg>
