<svg width="22" height="22" viewBox="0 0 22 22" fill="none" xmlns="http://www.w3.org/2000/svg" xmlns:xlink="http://www.w3.org/1999/xlink">
<path d="M10.667,20.667C16.558,20.667 21.333,15.891 21.333,10C21.333,4.109 16.558,-0.667 10.667,-0.667C4.776,-0.667 0,4.109 0,10C0,15.891 4.776,20.667 10.667,20.667ZM15.809,7.588C16.134,7.142 16.035,6.516 15.588,6.191C15.142,5.867 14.516,5.965 14.191,6.412L9.546,12.799L7.04,10.293C6.65,9.902 6.017,9.902 5.626,10.293C5.236,10.684 5.236,11.317 5.626,11.707L8.96,15.041C9.166,15.247 9.453,15.353 9.745,15.33C10.036,15.307 10.303,15.158 10.475,14.922L15.809,7.588Z" clip-rule="evenodd" fill-rule="evenodd" fill="#FFFFFF"/>
</svg>
