<svg width="20" height="24" viewBox="0 0 20 24" fill="none" xmlns="http://www.w3.org/2000/svg" xmlns:xlink="http://www.w3.org/1999/xlink">
<path d="M10,0.8C10.663,0.8 11.2,1.337 11.2,2L11.2,19.021L17.535,12.368C17.994,11.891 18.754,11.876 19.232,12.335C19.709,12.794 19.724,13.554 19.265,14.032L10.865,22.832C10.639,23.067 10.326,23.2 10,23.2C9.674,23.2 9.361,23.067 9.135,22.832L0.735,14.032C0.276,13.554 0.291,12.794 0.768,12.335C1.246,11.876 2.006,11.891 2.465,12.368L8.8,19.021L8.8,2C8.8,1.337 9.337,0.8 10,0.8Z" clip-rule="evenodd" fill-rule="evenodd" transform="rotate(0 10 12)" fill="#0F172A"/>
</svg>
