<svg width="38" height="52" viewBox="0 0 38 52" fill="none" xmlns="http://www.w3.org/2000/svg" xmlns:xlink="http://www.w3.org/1999/xlink">
<path d="M8.06,10.876C8.06,8.203 9.121,5.64 11.011,3.75C12.901,1.86 15.464,0.799 18.136,0.799C20.809,0.799 23.372,1.86 25.262,3.75C27.151,5.64 28.213,8.203 28.213,10.876C28.213,13.548 27.151,16.111 25.262,18.001C23.372,19.891 20.809,20.952 18.136,20.952C15.464,20.952 12.901,19.891 11.011,18.001C9.121,16.111 8.06,13.548 8.06,10.876ZM2.847,33.361C4.485,30.792 6.745,28.677 9.418,27.213C12.09,25.748 15.089,24.981 18.136,24.983C20.689,24.981 23.213,25.517 25.543,26.558C27.874,27.599 29.958,29.12 31.66,31.022C33.362,32.924 34.643,35.164 35.419,37.595C36.195,40.027 36.449,42.595 36.164,45.131C36.129,45.446 36.021,45.748 35.847,46.014C35.673,46.279 35.439,46.499 35.165,46.657C29.983,49.63 24.111,51.191 18.136,51.182C12.162,51.192 6.29,49.631 1.108,46.657C0.833,46.499 0.599,46.279 0.426,46.014C0.252,45.748 0.143,45.446 0.108,45.131C-0.343,41.01 0.623,36.859 2.847,33.361Z" clip-rule="evenodd" fill-rule="evenodd" transform="rotate(0 18.139 25.991)" fill="url(#pf_0_i_1_344;337_12582)"/>
<defs>
<linearGradient id="pf_0_i_1_344;337_12582" x1="-1.93" y1="-1.72" x2="37.325" y2="69.592" gradientUnits="userSpaceOnUse">
<stop stop-color="#9765CA"/>
<stop offset="0.306" stop-color="#7D3EBC"/>
<stop offset="0.52" stop-color="#7D3EBC"/>
<stop offset="0.911" stop-color="#6318AF"/>
</linearGradient>
</defs>
</svg>
